<mxfile host="app.diagrams.net" modified="2023-04-24T03:06:00.475Z" agent="Mozilla/5.0 (Macintosh; Intel Mac OS X 10.15; rv:109.0) Gecko/20100101 Firefox/112.0" version="21.2.1" etag="Mg8q5vSGJtMKl78u936n" type="github">
  <diagram name="Страница 1" id="7ww10podZ8SqFcDXbBnp">
    <mxGraphModel>
      <root>
        <mxCell id="0" />
        <mxCell id="1" parent="0" />
      </root>
    </mxGraphModel>
  </diagram>
</mxfile>
